# Blender 3.4.1
# www.blender.org
mtllib istapp.mtl
o Cone
v 0.000000 23.247826 0.000000
v -0.195090 0.051096 -0.980785
v -0.382683 0.051096 -0.923880
v -0.555570 0.051096 -0.831470
v -0.707107 0.051096 -0.707107
v -0.831470 0.051096 -0.555570
v -0.923880 0.051096 -0.382683
v -0.980785 0.051096 -0.195090
v -1.000000 0.051096 0.000000
v -0.980785 0.051096 0.195090
v -0.923880 0.051096 0.382683
v -0.831470 0.051096 0.555570
v -0.707107 0.051096 0.707107
v -0.555570 0.051096 0.831470
v -0.382683 0.051096 0.923880
v -0.195090 0.051096 0.980785
v 0.000000 0.051096 1.000000
v 0.195090 0.051096 0.980785
v 0.382683 0.051096 0.923880
v 0.555570 0.051096 0.831470
v 0.707107 0.051096 0.707107
v 0.831470 0.051096 0.555570
v 0.923880 0.051096 0.382683
v 0.980785 0.051096 0.195090
v 1.000000 0.051096 0.000000
v 0.980785 0.051096 -0.195090
v 0.923880 0.051096 -0.382683
v 0.831470 0.051096 -0.555570
v 0.707107 0.051096 -0.707107
v 0.555570 0.051096 -0.831470
v 0.382683 0.051096 -0.923880
v 0.195090 0.051096 -0.980785
v 0.000000 0.051096 -1.000000
vn -0.0979 0.0429 -0.9943
vn 0.6338 0.0429 0.7723
vn -0.8811 0.0429 0.4710
vn 0.0979 0.0429 -0.9943
vn 0.2900 0.0429 -0.9561
vn -0.9561 0.0429 0.2900
vn 0.4710 0.0429 -0.8811
vn 0.6338 0.0429 -0.7723
vn -0.9943 0.0429 0.0979
vn 0.7723 0.0429 -0.6338
vn 0.8811 0.0429 -0.4710
vn -0.9943 0.0429 -0.0979
vn 0.9561 0.0429 -0.2900
vn 0.9943 0.0429 -0.0979
vn -0.9561 0.0429 -0.2900
vn 0.9943 0.0429 0.0979
vn 0.9561 0.0429 0.2900
vn 0.8811 0.0429 0.4710
vn 0.7723 0.0429 0.6338
vn -0.2900 0.0429 -0.9561
vn -0.7723 0.0429 0.6338
vn -0.0000 -1.0000 -0.0000
vn -0.6338 0.0429 0.7723
vn 0.4710 0.0429 0.8811
vn -0.8811 0.0429 -0.4710
vn -0.7723 0.0429 -0.6338
vn 0.2900 0.0429 0.9561
vn 0.0979 0.0429 0.9943
vn -0.6338 0.0429 -0.7723
vn -0.0979 0.0429 0.9943
vn -0.2900 0.0429 0.9561
vn -0.4710 0.0429 -0.8811
vn -0.4710 0.0429 0.8811
vt 0.250000 0.250000
vt 0.203178 0.485388
vt 0.703178 0.485388
vt 0.658156 0.471731
vt 0.158156 0.471731
vt 0.616663 0.449553
vt 0.116663 0.449553
vt 0.580294 0.419706
vt 0.080294 0.419706
vt 0.550447 0.383337
vt 0.050447 0.383337
vt 0.528269 0.341844
vt 0.028269 0.341844
vt 0.014612 0.296822
vt 0.514612 0.296822
vt 0.010000 0.250000
vt 0.510000 0.250000
vt 0.014612 0.203178
vt 0.514612 0.203178
vt 0.028269 0.158156
vt 0.528269 0.158156
vt 0.050447 0.116663
vt 0.550447 0.116663
vt 0.580294 0.080294
vt 0.080294 0.080294
vt 0.616663 0.050447
vt 0.116663 0.050447
vt 0.658156 0.028269
vt 0.158156 0.028269
vt 0.703178 0.014612
vt 0.203178 0.014612
vt 0.750000 0.010000
vt 0.250000 0.010000
vt 0.796822 0.014612
vt 0.296822 0.014612
vt 0.841844 0.028269
vt 0.341844 0.028269
vt 0.883337 0.050447
vt 0.383337 0.050447
vt 0.419706 0.080294
vt 0.919706 0.080294
vt 0.449553 0.116663
vt 0.949553 0.116663
vt 0.471731 0.158156
vt 0.971731 0.158156
vt 0.485388 0.203178
vt 0.985388 0.203178
vt 0.490000 0.250000
vt 0.990000 0.250000
vt 0.485388 0.296822
vt 0.985388 0.296822
vt 0.471731 0.341844
vt 0.971731 0.341844
vt 0.449553 0.383337
vt 0.949553 0.383337
vt 0.419706 0.419706
vt 0.919706 0.419706
vt 0.383337 0.449553
vt 0.883337 0.449553
vt 0.341844 0.471731
vt 0.841844 0.471731
vt 0.296822 0.485388
vt 0.796822 0.485388
vt 0.250000 0.490000
vt 0.750000 0.490000
s 0
f 2/2/1 1/1/1 33/64/1
f 21/40/2 1/1/2 20/39/2
f 12/22/3 1/1/3 11/20/3
f 33/64/4 1/1/4 32/62/4
f 32/62/5 1/1/5 31/60/5
f 11/20/6 1/1/6 10/18/6
f 31/60/7 1/1/7 30/58/7
f 30/58/8 1/1/8 29/56/8
f 10/18/9 1/1/9 9/16/9
f 29/56/10 1/1/10 28/54/10
f 28/54/11 1/1/11 27/52/11
f 9/16/12 1/1/12 8/14/12
f 27/52/13 1/1/13 26/50/13
f 26/50/14 1/1/14 25/48/14
f 8/14/15 1/1/15 7/13/15
f 25/48/16 1/1/16 24/46/16
f 24/46/17 1/1/17 23/44/17
f 23/44/18 1/1/18 22/42/18
f 22/42/19 1/1/19 21/40/19
f 3/5/20 1/1/20 2/2/20
f 13/25/21 1/1/21 12/22/21
f 6/10/22 5/8/22 4/6/22 3/4/22 2/3/22 33/65/22 32/63/22 31/61/22 30/59/22 29/57/22 28/55/22 27/53/22 26/51/22 25/49/22 24/47/22 23/45/22 22/43/22 21/41/22 20/38/22 19/36/22 18/34/22 17/32/22 16/30/22 15/28/22 14/26/22 13/24/22 12/23/22 11/21/22 10/19/22 9/17/22 8/15/22 7/12/22
f 14/27/23 1/1/23 13/25/23
f 20/39/24 1/1/24 19/37/24
f 7/13/25 1/1/25 6/11/25
f 6/11/26 1/1/26 5/9/26
f 19/37/27 1/1/27 18/35/27
f 18/35/28 1/1/28 17/33/28
f 5/9/29 1/1/29 4/7/29
f 17/33/30 1/1/30 16/31/30
f 16/31/31 1/1/31 15/29/31
f 4/7/32 1/1/32 3/5/32
f 15/29/33 1/1/33 14/27/33
